<svg width="30" height="30" viewBox="0 0 30 30" fill="none" xmlns="http://www.w3.org/2000/svg">
<path d="M24.1138 7.49996H25.0012C25.3328 7.49996 25.6507 7.63165 25.8851 7.86608C26.1196 8.1005 26.2512 8.41844 26.2512 8.74996V17.5C26.2512 17.8315 26.1196 18.1494 25.8851 18.3838C25.6507 18.6183 25.3328 18.75 25.0012 18.75H22.5012L17.2888 11.455C16.9856 11.0308 16.5574 10.712 16.064 10.5432C15.5707 10.3744 15.037 10.3641 14.5375 10.5137L11.43 11.4462C10.9977 11.5756 10.5385 11.5856 10.101 11.4751C9.66347 11.3647 9.26402 11.1378 8.945 10.8187L8.57875 10.4525C8.44799 10.3217 8.34786 10.1636 8.28558 9.9895C8.2233 9.8154 8.20043 9.62964 8.2186 9.44563C8.23677 9.26162 8.29555 9.08393 8.39068 8.92537C8.48581 8.76682 8.61494 8.63134 8.76875 8.52871L15.52 4.02871C15.923 3.75985 16.3955 3.61388 16.8799 3.60855C17.3644 3.60322 17.8399 3.73877 18.2487 3.99871L23.4437 7.30496C23.6437 7.43201 23.8769 7.49964 24.1138 7.49996ZM6.28375 17.8687L4.26375 19.6362C4.12569 19.7572 4.01599 19.9072 3.94244 20.0754C3.86889 20.2436 3.83329 20.426 3.83819 20.6095C3.84308 20.793 3.88834 20.9732 3.97075 21.1373C4.05316 21.3013 4.17069 21.4452 4.315 21.5587L10.74 26.6087C10.8812 26.7199 11.0448 26.7993 11.2195 26.8415C11.3942 26.8838 11.576 26.8878 11.7524 26.8534C11.9289 26.819 12.0958 26.7469 12.2419 26.6422C12.3879 26.5374 12.5096 26.4023 12.5988 26.2462L13.4788 24.7062C13.7408 24.2476 13.8509 23.7178 13.7931 23.1927C13.7354 22.6677 13.5129 22.1744 13.1575 21.7837L9.78 18.0687C9.33955 17.5841 8.72653 17.2917 8.07274 17.2543C7.41895 17.2169 6.77659 17.4375 6.28375 17.8687ZM8.8075 6.24996H3.75C3.41848 6.24996 3.10054 6.38165 2.86612 6.61608C2.6317 6.8505 2.5 7.16844 2.5 7.49996V16.895C2.50007 17.3991 2.65257 17.8915 2.9375 18.3075L3.03 18.225L5.04875 16.4575C5.91124 15.7027 7.03544 15.3166 8.17965 15.382C9.32386 15.4475 10.3967 15.9593 11.1675 16.8075L14.545 20.5225C15.1666 21.2061 15.5558 22.0689 15.6569 22.9873C15.7579 23.9057 15.5656 24.8326 15.1075 25.635L14.2887 27.0675C14.642 27.2014 15.021 27.2536 15.3972 27.22C15.7735 27.1864 16.1373 27.068 16.4612 26.8737L21.9738 23.5662C22.1216 23.4774 22.2494 23.359 22.3492 23.2184C22.449 23.0778 22.5187 22.918 22.5538 22.7492C22.5889 22.5804 22.5887 22.4061 22.5532 22.2374C22.5177 22.0686 22.4477 21.9091 22.3475 21.7687L15.7638 12.545C15.6879 12.439 15.5809 12.3594 15.4577 12.3173C15.3344 12.2752 15.201 12.2726 15.0763 12.31L11.9688 13.2412C11.2122 13.4681 10.4084 13.4861 9.64255 13.2931C8.87669 13.1 8.17735 12.7033 7.61875 12.145L7.2525 11.7787C6.92548 11.4519 6.67506 11.0565 6.5193 10.6212C6.36354 10.1859 6.30631 9.72142 6.35175 9.2613C6.39718 8.80119 6.54415 8.35689 6.78206 7.96044C7.01996 7.564 7.34287 7.22528 7.7275 6.96871L8.8075 6.24996Z" fill="white"/>
</svg>
